<svg id="Layer_1" data-name="Layer 1" xmlns="http://www.w3.org/2000/svg" viewBox="0 0 42 33"><defs><style>.cls-1{opacity:0.3;}.cls-2{fill:#1678c2;}</style></defs><title>Artboard 2</title><path class="cls-1" d="M2,16.63a4.43,4.43,0,0,1,.34-1.74,4,4,0,0,1,2.26-2.17,4.41,4.41,0,0,1,1.63-.29,5.07,5.07,0,0,1,1.22.13,6.06,6.06,0,0,1,.91.3,4.22,4.22,0,0,1,.77.42L7.88,15.5a4.38,4.38,0,0,0-.42-.28A5,5,0,0,0,7,15,2.17,2.17,0,0,0,6.33,15a1.72,1.72,0,0,0-.68.13,1.87,1.87,0,0,0-.55.36,1.77,1.77,0,0,0-.36.53,1.62,1.62,0,0,0-.13.66,1.57,1.57,0,0,0,.13.65,1.83,1.83,0,0,0,.38.53,1.54,1.54,0,0,0,.57.36,1.78,1.78,0,0,0,.7.14,2.39,2.39,0,0,0,.69-.1,2.14,2.14,0,0,0,.5-.22A1.63,1.63,0,0,0,8,17.68L9.26,19.9a3.36,3.36,0,0,1-.77.47,5.79,5.79,0,0,1-.92.31,4.63,4.63,0,0,1-1.24.15,4.78,4.78,0,0,1-1.72-.31,3.94,3.94,0,0,1-1.37-.86,3.78,3.78,0,0,1-.9-1.32A4.34,4.34,0,0,1,2,16.63Zm8.28-4h2.55v2.72h1.43V12.62h2.57v8H14.27v-3H12.84v3H10.29Zm8.22,0h4.72v2.1H21.07v.89h2.12v2H21.07v.92h2.24v2.1h-4.8Zm14.28,0h2.6v1.85l1.51-1.85H40l-2.82,3.66,3,4.34H37.09l-1.7-2.47v2.47h-2.6Z"/><path class="cls-2" d="M27.6,2.49h2.71v8H27.6ZM24.54,16.63a4.42,4.42,0,0,1,.33-1.74,4.14,4.14,0,0,1,.91-1.32,4,4,0,0,1,1.35-.85,4.41,4.41,0,0,1,1.63-.29,5.07,5.07,0,0,1,1.22.13,6.06,6.06,0,0,1,.91.3,4.22,4.22,0,0,1,.77.42L30.4,15.5a3.4,3.4,0,0,0-.42-.28A4.13,4.13,0,0,0,29.5,15a2.11,2.11,0,0,0-.64-.09,1.73,1.73,0,0,0-.69.13,1.7,1.7,0,0,0-.54.36,1.6,1.6,0,0,0-.5,1.19,1.44,1.44,0,0,0,.14.65,1.64,1.64,0,0,0,.37.53,1.54,1.54,0,0,0,.57.36,1.8,1.8,0,0,0,.71.14,2.37,2.37,0,0,0,.68-.1,2.14,2.14,0,0,0,.5-.22,1.63,1.63,0,0,0,.42-.31l1.26,2.22a3.51,3.51,0,0,1-.76.47,6.31,6.31,0,0,1-.93.31,4.6,4.6,0,0,1-1.23.15,4.8,4.8,0,0,1-1.73-.31,3.93,3.93,0,0,1-2.27-2.18A4.34,4.34,0,0,1,24.54,16.63Zm.22,10A4.14,4.14,0,0,1,25.09,25a4.24,4.24,0,0,1,2.23-2.23A4.14,4.14,0,0,1,29,22.43a4.09,4.09,0,0,1,1.63.33,4.27,4.27,0,0,1,1.34.9,4.22,4.22,0,0,1,.9,1.33,4.14,4.14,0,0,1,.33,1.64,4.09,4.09,0,0,1-.33,1.63,4.19,4.19,0,0,1-2.24,2.24,4.09,4.09,0,0,1-1.63.33,4.14,4.14,0,0,1-1.64-.33A4.22,4.22,0,0,1,26,29.6a4.27,4.27,0,0,1-.9-1.34A4.09,4.09,0,0,1,24.76,26.63Zm2.52,0a1.57,1.57,0,0,0,.13.65,1.77,1.77,0,0,0,.36.53,1.47,1.47,0,0,0,.53.36,1.66,1.66,0,0,0,.66.14,1.58,1.58,0,0,0,.65-.14,1.51,1.51,0,0,0,.54-.36,1.76,1.76,0,0,0,.49-1.18A1.63,1.63,0,0,0,30.5,26a1.58,1.58,0,0,0-.35-.53,1.82,1.82,0,0,0-.54-.36A1.57,1.57,0,0,0,29,25a1.65,1.65,0,0,0-.66.13,1.71,1.71,0,0,0-.89.89A1.62,1.62,0,0,0,27.28,26.63Z"/></svg>